<svg id="Capa_1" enable-background="new 0 0 510 510" height="512" viewBox="0 0 510 510" width="512" xmlns="http://www.w3.org/2000/svg" xmlns:xlink="http://www.w3.org/1999/xlink"><linearGradient id="lg1"><stop offset="0" stop-color="#ffc2b5"/><stop offset=".2441" stop-color="#ffbbb3"/><stop offset=".6097" stop-color="#ffa6af"/><stop offset="1" stop-color="#ff89a8"/></linearGradient><linearGradient id="SVGID_1_" gradientUnits="userSpaceOnUse" x1="240.881" x2="413.614" xlink:href="#lg1" y1="407.401" y2="407.401"/><linearGradient id="SVGID_2_" gradientUnits="userSpaceOnUse" x1="274.526" x2="464.936" xlink:href="#lg1" y1="418.73" y2="418.73"/><linearGradient id="lg2"><stop offset="0" stop-color="#a2e62e"/><stop offset=".7542" stop-color="#09a76d"/><stop offset="1" stop-color="#017b4e"/></linearGradient><linearGradient id="SVGID_3_" gradientUnits="userSpaceOnUse" x1="137.542" x2="249.653" xlink:href="#lg2" y1="279.695" y2="279.695"/><linearGradient id="lg3"><stop offset="0" stop-color="#a2e62e"/><stop offset="1" stop-color="#02905d"/></linearGradient><linearGradient id="SVGID_4_" gradientUnits="userSpaceOnUse" x1="171.119" x2="239.132" xlink:href="#lg3" y1="283.154" y2="283.154"/><linearGradient id="SVGID_5_" gradientUnits="userSpaceOnUse" x1="259.625" x2="372.388" xlink:href="#lg2" y1="279.695" y2="279.695"/><linearGradient id="SVGID_6_" gradientUnits="userSpaceOnUse" x1="249.232" x2="357.134" xlink:href="#lg3" y1="279.695" y2="279.695"/><linearGradient id="SVGID_7_" gradientUnits="userSpaceOnUse" x1="181.333" x2="326.014" xlink:href="#lg2" y1="123.904" y2="123.904"/><linearGradient id="SVGID_8_" gradientUnits="userSpaceOnUse" x1="179.333" x2="284.669" xlink:href="#lg3" y1="155.781" y2="155.781"/><linearGradient id="SVGID_9_" gradientUnits="userSpaceOnUse" x1="238.667" x2="295.396" y1="204.119" y2="204.119"><stop offset="0" stop-color="#09a76d"/><stop offset="1" stop-color="#026841"/></linearGradient><linearGradient id="SVGID_10_" gradientUnits="userSpaceOnUse" x1="133.914" x2="373.699" y1="378.844" y2="378.844"><stop offset="0" stop-color="#a79ba7"/><stop offset=".7487" stop-color="#7a6d79"/><stop offset="1" stop-color="#685e68"/></linearGradient><linearGradient id="SVGID_11_" gradientUnits="userSpaceOnUse" x1="297.846" x2="405.896" y1="378.844" y2="378.844"><stop offset="0" stop-color="#685e68"/><stop offset="1" stop-color="#433f43"/></linearGradient><linearGradient id="lg4"><stop offset="0" stop-color="#ffdcbd"/><stop offset=".0028" stop-color="#ffdcbd"/><stop offset="1" stop-color="#ffa9b1"/></linearGradient><linearGradient id="SVGID_12_" gradientUnits="userSpaceOnUse" x1="47.338" x2="534.684" xlink:href="#lg4" y1="427.886" y2="427.886"/><linearGradient id="SVGID_13_" gradientUnits="userSpaceOnUse" x1="63.665" x2="346.067" xlink:href="#lg4" y1="370.904" y2="370.904"/><linearGradient id="SVGID_14_" gradientUnits="userSpaceOnUse" x1="6.119" x2="79.95" y1="390.878" y2="390.878"><stop offset="0" stop-color="#f8f6f7"/><stop offset=".1788" stop-color="#f8f6f7"/><stop offset="1" stop-color="#e7e6f5"/></linearGradient><linearGradient id="SVGID_15_" gradientUnits="userSpaceOnUse" x1="-14.296" x2="69.978" y1="390.878" y2="390.878"><stop offset="0" stop-color="#fff9df"/><stop offset=".593" stop-color="#ffe177"/><stop offset="1" stop-color="#feb137"/></linearGradient><g><g><path d="m402.634 347.414-131.33 39.588c-1.239.373-2.481.717-3.723 1.069v80.234c3.612-1.278 7.214-2.604 10.797-4.018l131.364-51.825c13.907-5.486 23.262-20.661 23.262-37.732 0-18.461-14.997-31.95-30.37-27.316z" fill="url(#SVGID_1_)"/><path d="m447.637 352.572-131.33 39.588c-16.059 4.841-32.37 7.903-48.726 9.245v84.4c18.867-3.701 37.529-9.152 55.8-16.36l131.364-51.825c13.907-5.486 23.262-20.661 23.262-37.732 0-18.461-14.997-31.95-30.37-27.316z" fill="url(#SVGID_2_)"/><g><g><g><g><path d="m165.626 308.614c17.193 17.193 40.646 25.641 66.611 25.992 9.579.13 17.351-7.642 17.221-17.221-.352-25.966-8.799-49.418-25.993-66.611s-40.646-25.641-66.611-25.993c-9.579-.13-17.351 7.642-17.221 17.221.352 25.967 8.8 49.419 25.993 66.612z" fill="url(#SVGID_3_)"/><path d="m194.049 231.7c1.318 1.115 2.603 2.29 3.845 3.533 24.177 24.177 24.177 63.376 0 87.553-1.488 1.488-3.034 2.884-4.63 4.189 11.887 4.931 25.069 7.443 38.973 7.631 9.579.13 17.351-7.642 17.221-17.221-.352-25.966-8.799-49.418-25.993-66.611-8.442-8.443-18.398-14.772-29.416-19.074z" fill="url(#SVGID_4_)"/></g><g><g><g><path d="m286.534 250.775c-17.193 17.193-25.641 40.646-25.993 66.611-.13 9.579 7.642 17.351 17.221 17.221 25.966-.352 49.418-8.799 66.611-25.992s25.641-40.646 25.992-66.611c.13-9.579-7.642-17.351-17.221-17.221-25.964.351-49.417 8.798-66.61 25.992z" fill="url(#SVGID_5_)"/></g><path d="m353.145 224.782c-6.262.085-12.375.645-18.292 1.681 5.752 2.776 9.695 8.695 9.602 15.54-.352 25.966-8.799 49.418-25.992 66.611-13.047 13.047-29.701 21.053-48.32 24.312 2.298 1.109 4.884 1.718 7.619 1.681 25.966-.352 49.418-8.799 66.611-25.992s25.641-40.646 25.992-66.611c.131-9.58-7.64-17.352-17.22-17.222z" fill="url(#SVGID_6_)"/></g></g></g><g><path d="m183.252 123.904c0 42.655 18.613 82.226 50.386 114.872 11.722 12.044 31.002 12.044 42.724 0 31.774-32.646 50.386-72.216 50.386-114.872s-18.613-82.226-50.386-114.871c-11.722-12.044-31.002-12.044-42.724 0-31.773 32.645-50.386 72.216-50.386 114.871z" fill="url(#SVGID_7_)"/><path d="m313.918 63.752c.252 3.018.387 6.07.387 9.153 0 59.981-48.625 108.606-108.606 108.606-3.693 0-7.342-.186-10.94-.546 8.63 20.862 21.864 40.33 38.878 57.811 11.722 12.044 31.002 12.044 42.724 0 31.773-32.646 50.386-72.216 50.386-114.872.001-20.947-4.497-41.147-12.829-60.152z" fill="url(#SVGID_8_)"/><path d="m295.992 141.516-30.943 30.943v-13.464c0-16.973 6.742-33.251 18.744-45.252l26.34-26.34c3.766-3.766 4.213-9.897.697-13.899-3.852-4.385-10.536-4.546-14.597-.485l-31.184 31.184v-85.006c0-5.326-4.019-9.977-9.335-10.321-5.824-.377-10.665 4.235-10.665 9.978v85.447l-31.041-31.041c-3.766-3.766-9.896-4.212-13.898-.698-4.385 3.852-4.548 10.536-.486 14.598l26.682 26.683c12.002 12.002 18.744 28.279 18.744 45.252v13.464l-31.284-31.284c-4.062-4.062-10.747-3.898-14.599.487-3.514 4.001-3.068 10.131.698 13.896l32.831 32.832c7.91 7.91 12.354 18.638 12.354 29.824v170.726c0 5.326 4.019 9.977 9.335 10.321 5.824.377 10.665-4.235 10.665-9.978v-171.169c0-11.186 4.444-21.914 12.354-29.824l32.973-32.973c4.061-4.061 3.899-10.746-.486-14.598-4.002-3.515-10.133-3.069-13.899.697z" fill="url(#SVGID_9_)"/></g></g><g><path d="m390.91 399.441c0 38.838-271.82 38.838-271.82 0s60.849-70.323 135.91-70.323 135.91 31.485 135.91 70.323z" fill="url(#SVGID_10_)"/><path d="m255 329.118c-6.324 0-12.544.229-18.638.661 66.241 4.701 117.272 34.096 117.272 69.662 0 17.639-56.066 27.266-117.272 28.883 73.562 1.944 154.548-7.684 154.548-28.883 0-38.838-60.849-70.323-135.91-70.323z" fill="url(#SVGID_11_)"/></g></g><path d="m47.338 380.247v86.34l103.943 30.603c67.384 19.839 138.269 16.578 204.093-9.391l131.364-51.825c13.907-5.486 23.262-20.661 23.262-37.732 0-18.461-14.997-31.95-30.37-27.316l-131.33 39.588c-60.948 18.372-125.506 11.383-182.487-19.758l-76.25-41.671c-19.645-10.737-42.225 5.927-42.225 31.162z" fill="url(#SVGID_12_)"/><path d="m85.073 314.67c26.509-13.4 58.626-8.26 79.629 12.743l7.385 7.385c27.7 27.7 65.269 43.262 104.443 43.262h31.019c21.423 0 38.79 17.367 38.79 38.79 0 9.767-7.917 17.684-17.684 17.684h-281.317v-58.507c0-25.932 14.592-49.658 37.735-61.357z" fill="url(#SVGID_13_)"/></g><g><path d="m21.626 488.119v-194.483h26.243c22.566 0 40.859 18.293 40.859 40.859v112.765c0 22.566-18.293 40.859-40.859 40.859z" fill="url(#SVGID_14_)"/><path d="m0 487.739v-193.723c0-12.294 9.967-22.261 22.261-22.261 19.142 0 34.66 15.518 34.66 34.66v168.925c0 19.142-15.518 34.66-34.66 34.66-12.294 0-22.261-9.967-22.261-22.261z" fill="url(#SVGID_15_)"/></g></g></svg>